<svg id="Layer_1" data-name="Layer 1" xmlns="http://www.w3.org/2000/svg" viewBox="0 0 1080 1080"><defs><style>.cls-1,.cls-2,.cls-3{fill:#231f20;}.cls-1{opacity:0.78;}.cls-3{opacity:0.35;}</style></defs><title>thesis-icon-forge</title><path class="cls-1" d="M634.49,655.71c-4.66,28.65-68.41,61-92.36,61s-87.69-32.38-92.35-61c-3.42-21,41.35-21,92.35-21S637.91,634.68,634.49,655.71Z"/><path class="cls-2" d="M306.29,753.49a554.68,554.68,0,0,0,231,17.44h0l1-.14,1,.14a566.72,566.72,0,0,0,234.43-17.44c8-2.31,15.94,3.62,17.85,13.24s-3,19.29-11,21.59c-.29.09-.65.17-.94.24A583.65,583.65,0,0,1,658.12,801a578.07,578.07,0,0,1-120.83-13.28h2A565.66,565.66,0,0,1,420.17,801a571.11,571.11,0,0,1-119.9-12.45h0c-8.05-1.7-13.44-11-12-20.73s9.09-16.26,17.14-14.55C305.66,753.32,306,753.41,306.29,753.49Z"/><ellipse class="cls-2" cx="328.96" cy="520.1" rx="50.22" ry="67.33"/><path class="cls-2" d="M244.67,475.93a114.47,114.47,0,0,1,57-24.87,107.6,107.6,0,0,1,32.24.34c5.4.61,10.62,2.27,15.85,3.62a156.58,156.58,0,0,1,14.76,5.25,110.28,110.28,0,0,1,14.57,7.41,99.3,99.3,0,0,1,13.35,9.95c8.19,7.61,15.23,16.75,19.56,27a81.62,81.62,0,0,1,1.34,62.87,4.16,4.16,0,0,1-8-1.84v-.08c1.45-18.93-1.79-37.42-10.51-52.31s-22.42-25.69-38.92-32.46c-4.13-1.78-8.34-3.18-13-4.78-4.29-1.21-8.45-2.65-12.82-3.44a108.7,108.7,0,0,0-26.6-2.23c-18,.77-36.45,5.58-53.76,13.28l-.19.08a4.63,4.63,0,0,1-4.84-7.79Z"/><path class="cls-2" d="M143.84,732.92c-4.46-9-6.25-18.84-6.45-28.9a71.86,71.86,0,0,1,6.14-30,62.71,62.71,0,0,1,19.52-24.6A52.07,52.07,0,0,1,191.52,639a4.3,4.3,0,0,1,2.84,7.66l-.12.1c-7.13,5.62-13.25,11-18.28,17a86.76,86.76,0,0,0-12.09,19.35,106.76,106.76,0,0,0-7.07,22.63c-1.7,8-2.84,16.59-3.93,25.41l0,.28a4.76,4.76,0,0,1-9,1.51Z"/><ellipse class="cls-2" cx="751.04" cy="520.1" rx="50.22" ry="67.33"/><path class="cls-2" d="M830.3,483.64c-17.31-7.7-35.73-12.51-53.76-13.28a108.7,108.7,0,0,0-26.6,2.23c-4.37.79-8.53,2.23-12.82,3.44-4.67,1.6-8.88,3-13,4.78-16.5,6.77-30.23,17.49-38.92,32.46s-12,33.38-10.51,52.31v.08a4.16,4.16,0,0,1-8,1.84A81.62,81.62,0,0,1,668,504.63c4.33-10.25,11.37-19.39,19.56-27a99.3,99.3,0,0,1,13.35-9.95,110.28,110.28,0,0,1,14.57-7.41A156.58,156.58,0,0,1,730.26,455c5.23-1.35,10.45-3,15.85-3.62a107.6,107.6,0,0,1,32.24-.34,114.47,114.47,0,0,1,57,24.87,4.63,4.63,0,0,1-4.84,7.79Z"/><path class="cls-2" d="M927.13,731.13c-1.09-8.82-2.23-17.36-3.93-25.41a106.76,106.76,0,0,0-7.07-22.63A86.76,86.76,0,0,0,904,663.74c-5-6-11.15-11.36-18.28-17l-.1-.08a4.3,4.3,0,0,1,2.82-7.68A52.07,52.07,0,0,1,917,649.41,62.71,62.71,0,0,1,936.47,674a71.86,71.86,0,0,1,6.14,30c-.2,10.06-2,19.85-6.45,28.9a4.76,4.76,0,0,1-9-1.48Z"/><path class="cls-2" d="M416.15,849c20.63,4.83,41.12,8.94,61.77,11.67,10.33,1.26,20.64,2.5,31,3.05,10.35.71,20.71,1.12,31.07,1,10.36.08,20.72-.35,31.07-1s20.68-1.77,31-3c20.65-2.73,41.15-6.85,61.77-11.68h0a7.05,7.05,0,0,1,4.71,13.2,271.64,271.64,0,0,1-62.55,21.22,302.5,302.5,0,0,1-32.82,5.24c-11,1.13-22.13,1.64-33.23,1.78-11.1-.14-22.19-.65-33.23-1.77A302.5,302.5,0,0,1,474,883.4a271.66,271.66,0,0,1-62.55-21.23A7.06,7.06,0,0,1,416.1,849Z"/><path class="cls-2" d="M146.62,439.35a315.5,315.5,0,0,0,25.07-29.56,236.37,236.37,0,0,0,20.19-32,237.56,237.56,0,0,0,14.49-34.76,296.47,296.47,0,0,0,9.12-37.72v0a4.2,4.2,0,0,1,8.21-.27c3.49,13.73,3.62,28.25,1.45,42.38a134.92,134.92,0,0,1-13.53,40.71,142.26,142.26,0,0,1-25.26,34.49c-10.13,10-21.48,18.65-34.65,24.41a4.67,4.67,0,0,1-5.28-7.48Z"/><path class="cls-2" d="M923.57,449.17c-13.18-5.76-24.53-14.43-34.66-24.42a142.21,142.21,0,0,1-25.26-34.48,135.29,135.29,0,0,1-13.53-40.71c-2.16-14.13-2-28.66,1.45-42.39a4.21,4.21,0,0,1,8.21.27v.06a298.18,298.18,0,0,0,9.12,37.72A240.24,240.24,0,0,0,883.4,380a237,237,0,0,0,20.19,32,316.79,316.79,0,0,0,25.07,29.56l.17.18a4.67,4.67,0,0,1-5.26,7.48Z"/><path class="cls-2" d="M785.4,216.26C710.05,172.75,625,147.4,540,147.4s-170,25.35-245.4,68.86q-13.74,7.94-27,16.65c3.29,4.18,6.59,8.38,9.92,12.66,3.12,4.07,6.28,8.14,9.43,12.27,8.87-5.78,17.92-11.29,27.07-16.4C385.16,201,463.53,179,540,179S694.84,201,766,241.44c9.15,5.11,18.2,10.62,27.07,16.4,3.15-4.13,6.31-8.2,9.43-12.27,3.33-4.28,6.63-8.48,9.92-12.66Q799.16,224.18,785.4,216.26Zm225.74,250.45c-5.93-14.09-12.59-27.94-19.88-41.44-2.63,8.52-5.37,17.15-8.17,25.81q-2.79,8.57-5.68,17.25a425,425,0,0,1,17.64,45.75,382,382,0,0,1,18.3,116.2c0,75.39-27.25,132.36-36.22,151.05-38,79.42-102.6,141.48-192,184.47-72.09,34.68-159.68,54.94-240.36,55.64h-4.34c-83.56,0-170.55-19.63-244.92-55.33C207,923.69,140.42,859.8,102.84,781.33c-8.94-18.69-36.19-75.59-36.19-151.05A382,382,0,0,1,85,514.08a425,425,0,0,1,17.64-45.75q-2.9-8.68-5.68-17.25c-2.8-8.66-5.54-17.29-8.17-25.81-7.29,13.5-13.95,27.35-19.88,41.44C47.23,518.19,35.09,573.38,35.09,630.28c0,81,28.48,142.11,39.31,164.69,90.11,188.22,307.68,258,466,258H545c152.81-1.33,370.3-69.32,460.59-258,10.76-22.47,39.31-83.73,39.31-164.69C1044.91,573.38,1032.77,518.19,1011.14,466.71Z"/><path class="cls-2" d="M304,228.25c-3.12-4-6.24-8.06-9.36-12-29.81-38-59.12-71.7-87-100.1C131.38,38.6,74.44,8.3,38.29,26.15S-8.49,107.6,6.73,215.24c10.17,72,31.7,158.73,62.13,251.47,2.74,8.49,5.61,17,8.52,25.56q3.69,10.89,7.57,21.81a425,425,0,0,1,17.64-45.75q-2.9-8.68-5.68-17.25c-2.8-8.66-5.54-17.29-8.17-25.81-24.58-79-42-152.38-50.77-214.44-14.55-103-1.4-148.67,14.27-156.39a18.57,18.57,0,0,1,8.38-1.71c20.41,0,61.85,21.81,124.44,85.52,26.44,26.92,54.17,58.8,82.54,94.66,3.29,4.18,6.59,8.38,9.92,12.66,3.12,4.07,6.28,8.14,9.43,12.27,8.87-5.78,17.92-11.29,27.07-16.4C310.65,237,307.32,232.6,304,228.25Z"/><path class="cls-2" d="M1041.71,26.15c-36.15-17.85-93.09,12.45-169.28,90-27.91,28.4-57.22,62.13-87,100.1-3.12,3.93-6.24,8-9.36,12-3.36,4.35-6.69,8.73-10.06,13.19l27.07,16.4c3.15-4.13,6.31-8.2,9.43-12.27,3.33-4.28,6.63-8.48,9.92-12.66,28.37-35.86,56.1-67.74,82.54-94.66C967.87,64,1012.05,46.7,1027.76,54.44s28.82,53.34,14.27,156.39c-8.77,62.06-26.19,135.44-50.77,214.44-2.63,8.52-5.37,17.15-8.17,25.81q-2.79,8.57-5.68,17.25a425,425,0,0,1,17.64,45.75q3.88-10.94,7.57-21.81c2.91-8.55,5.78-17.07,8.52-25.56,30.43-92.74,52-179.45,62.13-251.47C1088.49,107.6,1077.86,44,1041.71,26.15Z"/><path class="cls-3" d="M621,171c19.84,89.74,57.26,131.58,90,153,32.42,21.21,64.25,22.12,90,54,25.38,31.42,28.26,71.2,27,99a548.67,548.67,0,0,1,63,63c32,37.81,41.7,59.88,72,81a174.47,174.47,0,0,0,63,27c-8.09-80.31-35.81-220.54-144-333a478.2,478.2,0,0,0-52.26-46.85A730.61,730.61,0,0,1,1017,45,561,561,0,0,0,783,225a430.71,430.71,0,0,0-162-54Z"/><path class="cls-3" d="M27,63A894.33,894.33,0,0,0,90,477l9-9c2.52-5.7,5.49-11.74,9-18a212.32,212.32,0,0,1,18-27A1221.5,1221.5,0,0,1,72,279,1223.51,1223.51,0,0,1,27,63Z"/></svg>